<svg width="48" height="45" viewBox="0 0 48 45" fill="none" xmlns="http://www.w3.org/2000/svg">
<path fill-rule="evenodd" clip-rule="evenodd" d="M31.4298 19.3136H30.5083L36.9088 12.9131L37.0547 12.9669C43.3054 15.3205 47.5135 21.3255 47.5135 28.0293C47.5135 36.8755 40.276 44.113 31.4298 44.113H0.145508L7.51351 36.745H31.4298C36.21 36.745 40.1455 32.8095 40.1455 28.0293C40.1455 23.2491 36.21 19.3136 31.4298 19.3136ZM18.5406 25.7179L13.9216 30.3368H31.4298C32.6738 30.3368 33.7373 29.2694 33.7373 28.0293C33.7373 26.7853 32.6699 25.7217 31.4298 25.7217H18.5406V25.7179Z" fill="#F78A35"/>
<path fill-rule="evenodd" clip-rule="evenodd" d="M29.4602 19.2752H16.571C15.327 19.2752 14.2634 18.2078 14.2634 16.9676C14.2634 15.7236 15.3308 14.6601 16.571 14.6601H34.0791L29.4602 19.2752ZM16.571 25.6795C11.7908 25.6795 7.85531 21.744 7.85531 16.9638C7.85531 12.1836 11.7908 8.24813 16.571 8.24813H40.4873L47.8553 0.880127H16.571C7.72477 0.880127 0.487305 8.11759 0.487305 16.9638C0.487305 23.6676 4.6954 29.6726 10.9461 32.0262L11.092 32.0799L17.4925 25.6795H16.571Z" fill="#3DADCF"/>
</svg>
